<svg xmlns="http://www.w3.org/2000/svg" version="1.1" xmlns:xlink="http://www.w3.org/1999/xlink" width="512" height="512" x="0" y="0" viewBox="0 0 2048 2048" style="enable-background:new 0 0 512 512" xml:space="preserve" class=""><g><circle cx="1024" cy="1024" r="1024" fill="#ef4444" opacity="1" data-original="#e53935" class=""></circle><g fill="#fffffe"><path d="M1361.5 669.455a264.452 264.452 0 0 0-46.781 4.174c6.156 24.144 9.281 48.982 9.281 74.235 0 38.957-7.392 76.937-21.969 112.883-15.094 37.223-37.266 70.615-65.9 99.249-2.662 2.663-6.152 3.994-9.642 3.994s-6.98-1.331-9.642-3.994c-5.326-5.325-5.326-13.959 0-19.284 106.336-106.336 106.336-279.359 0-385.695-51.512-51.511-119.999-79.88-192.848-79.88-72.848 0-141.336 28.368-192.847 79.88-106.336 106.336-106.336 279.358 0 385.694 5.325 5.325 5.325 13.96 0 19.285-5.326 5.326-13.96 5.326-19.285 0-28.634-28.633-50.806-62.025-65.9-99.249C731.391 824.8 724 786.821 724 747.864c0-25.253 3.126-50.091 9.281-74.235a264.46 264.46 0 0 0-46.781-4.174c-144.743 0-262.5 117.757-262.5 262.5s117.757 262.5 262.5 262.5c2.921 0 6.012-.063 9.73-.199a13.636 13.636 0 0 1 14.135 13.627v201.344h627.273v-201.344a13.636 13.636 0 0 1 14.135-13.627c3.717.136 6.809.199 9.73.199 144.743 0 262.5-117.757 262.5-262.5-.003-144.743-117.76-262.5-262.503-262.5zM710.364 1436.5h627.273v54.545H710.364zM710.364 1518.318h627.273v54.545H710.364z" fill="#fffffe" opacity="1" data-original="#fffffe" class=""></path></g></g></svg>