<svg width="26817" height="5135" viewBox="0 0 26817 5135" fill="none" xmlns="http://www.w3.org/2000/svg">
<g clip-path="url(#clip0_4166_34)">
<path d="M2567.5 5135C3985.49 5135 5135 3985.49 5135 2567.5C5135 1149.51 3985.49 0 2567.5 0C1149.51 0 0 1149.51 0 2567.5C0 3985.49 1149.51 5135 2567.5 5135Z" fill="#EF4444"/>
<path d="M3413.72 1678.54C3374.39 1678.54 3335.14 1682.05 3296.43 1689.01C3311.86 1749.54 3319.7 1811.82 3319.7 1875.14C3319.7 1972.82 3301.16 2068.04 3264.61 2158.17C3226.77 2251.5 3171.18 2335.23 3099.38 2407.02C3092.71 2413.7 3083.96 2417.04 3075.21 2417.04C3066.46 2417.04 3057.7 2413.7 3051.03 2407.02C3037.68 2393.67 3037.68 2372.02 3051.03 2358.67C3317.65 2092.05 3317.65 1658.23 3051.03 1391.61C2921.87 1262.45 2750.15 1191.32 2567.5 1191.32C2384.84 1191.32 2213.12 1262.45 2083.97 1391.61C1817.35 1658.23 1817.35 2092.05 2083.97 2358.67C2097.32 2372.02 2097.32 2393.67 2083.97 2407.02C2070.61 2420.38 2048.97 2420.38 2035.61 2407.02C1963.82 2335.23 1908.23 2251.5 1870.38 2158.17C1833.83 2068.04 1815.3 1972.82 1815.3 1875.14C1815.3 1811.82 1823.14 1749.54 1838.57 1689.01C1799.86 1682.05 1760.61 1678.54 1721.28 1678.54C1358.36 1678.54 1063.11 1973.8 1063.11 2336.71C1063.11 2699.63 1358.36 2994.89 1721.28 2994.89C1728.6 2994.89 1736.35 2994.73 1745.67 2994.39C1750.27 2994.22 1754.85 2994.98 1759.14 2996.62C1763.43 2998.26 1767.35 3000.75 1770.66 3003.94C1773.96 3007.13 1776.59 3010.95 1778.39 3015.18C1780.19 3019.41 1781.12 3023.96 1781.12 3028.55V3533.39H3353.89V3028.55C3353.89 3023.96 3354.82 3019.41 3356.62 3015.18C3358.41 3010.95 3361.04 3007.13 3364.35 3003.94C3367.66 3000.75 3371.58 2998.26 3375.87 2996.62C3380.16 2994.98 3384.74 2994.22 3389.33 2994.39C3398.65 2994.73 3406.41 2994.89 3413.73 2994.89C3776.65 2994.89 4071.9 2699.63 4071.9 2336.71C4071.89 1973.8 3776.64 1678.54 3413.72 1678.54ZM1781.11 3601.77H3353.89V3738.53H1781.11V3601.77ZM1781.11 3806.92H3353.89V3943.68H1781.11V3806.92Z" fill="#FFFFFE"/>
</g>
<path d="M24435.9 4534.81V1536.83H25379.7V4534.81H24435.9ZM25379.7 2887.77L24984.9 2579.34C25063 2229.78 25194.6 1958.36 25379.7 1765.07C25564.8 1571.79 25821.8 1475.15 26150.8 1475.15C26294.7 1475.15 26420.2 1497.76 26527.1 1543C26638.1 1584.13 26734.8 1649.93 26817 1740.4L26255.7 2449.8C26214.5 2404.56 26163.1 2369.6 26101.4 2344.93C26039.8 2320.25 25969.8 2307.92 25891.7 2307.92C25735.4 2307.92 25610 2357.27 25515.4 2455.97C25424.9 2550.55 25379.7 2694.49 25379.7 2887.77Z" fill="#EF4444"/>
<path d="M22536.8 4602.66C22212 4602.66 21922 4536.86 21667.1 4405.26C21416.2 4269.55 21218.8 4082.44 21074.9 3843.91C20930.9 3605.39 20859 3336.03 20859 3035.82C20859 2735.61 20928.9 2468.3 21068.7 2233.89C21212.6 1995.37 21405.9 1808.25 21648.6 1672.54C21891.2 1536.83 22164.7 1468.98 22469 1468.98C22765.1 1468.98 23026.2 1532.72 23252.4 1660.2C23478.6 1787.69 23655.4 1964.53 23782.9 2190.71C23914.5 2416.89 23980.3 2675.98 23980.3 2967.96C23980.3 3021.42 23976.2 3079 23968 3140.69C23963.9 3198.26 23953.6 3266.11 23937.1 3344.25L21352.5 3350.42V2702.71L23536.2 2696.54L23129 2967.96C23124.9 2795.24 23098.2 2653.36 23048.8 2542.32C22999.5 2427.18 22925.5 2340.81 22826.8 2283.24C22732.2 2221.55 22615 2190.71 22475.2 2190.71C22327.1 2190.71 22197.6 2225.67 22086.5 2295.58C21979.6 2361.38 21895.3 2455.96 21833.6 2579.34C21776 2702.71 21747.3 2852.81 21747.3 3029.65C21747.3 3206.48 21778.1 3358.64 21839.8 3486.13C21905.6 3609.5 21996.1 3706.15 22111.2 3776.06C22230.5 3841.86 22370.3 3874.76 22530.7 3874.76C22678.7 3874.76 22812.4 3850.08 22931.6 3800.73C23050.9 3747.27 23155.8 3669.13 23246.2 3566.32L23764.4 4084.49C23616.4 4257.21 23437.5 4386.76 23227.7 4473.12C23018 4559.48 22787.7 4602.66 22536.8 4602.66Z" fill="#EF4444"/>
<path d="M15670.8 4534.81V1536.83H16614.7V4534.81H15670.8ZM17589.3 4534.81V2782.9C17589.3 2630.74 17542 2513.54 17447.4 2431.29C17356.9 2344.93 17243.9 2301.75 17108.1 2301.75C17013.6 2301.75 16929.3 2322.31 16855.2 2363.43C16781.2 2400.45 16721.6 2453.91 16676.3 2523.82C16635.2 2593.73 16614.7 2680.09 16614.7 2782.9L16250.7 2622.52C16250.7 2384 16302.1 2180.43 16404.9 2011.82C16507.7 1839.1 16647.6 1707.5 16824.4 1617.03C17001.2 1522.44 17200.7 1475.15 17422.7 1475.15C17632.5 1475.15 17819.6 1522.44 17984.1 1617.03C18152.7 1711.61 18286.4 1843.21 18385.1 2011.82C18483.8 2180.43 18533.1 2381.94 18533.1 2616.35V4534.81H17589.3ZM19507.8 4534.81V2782.9C19507.8 2630.74 19460.5 2513.54 19365.9 2431.29C19275.4 2344.93 19162.3 2301.75 19026.6 2301.75C18932 2301.75 18847.7 2322.31 18773.7 2363.43C18699.7 2400.45 18640 2453.91 18594.8 2523.82C18553.7 2593.73 18533.1 2680.09 18533.1 2782.9L17990.3 2708.88C17998.5 2453.91 18058.1 2235.95 18169.2 2055C18284.3 1869.94 18434.4 1728.06 18619.5 1629.36C18808.6 1526.55 19020.4 1475.15 19254.8 1475.15C19485.1 1475.15 19688.7 1524.5 19865.5 1623.19C20046.5 1717.78 20188.4 1855.55 20291.2 2036.5C20398.1 2213.33 20451.6 2427.18 20451.6 2678.04V4534.81H19507.8Z" fill="#EF4444"/>
<path d="M10285.3 4534.81V1536.83H11229.1V4534.81H10285.3ZM12203.8 4534.81V2782.9C12203.8 2630.74 12156.5 2513.54 12061.9 2431.29C11971.4 2344.93 11858.3 2301.75 11722.6 2301.75C11628 2301.75 11543.7 2322.31 11469.7 2363.43C11395.7 2400.45 11336 2453.91 11290.8 2523.82C11249.7 2593.73 11229.1 2680.09 11229.1 2782.9L10865.2 2622.52C10865.2 2384 10916.6 2180.43 11019.4 2011.82C11122.2 1839.1 11262 1707.5 11438.9 1617.03C11615.7 1522.44 11815.1 1475.15 12037.2 1475.15C12246.9 1475.15 12434.1 1522.44 12598.6 1617.03C12767.2 1711.61 12900.8 1843.21 12999.5 2011.82C13098.2 2180.43 13147.6 2381.94 13147.6 2616.35V4534.81H12203.8ZM14122.2 4534.81V2782.9C14122.2 2630.74 14074.9 2513.54 13980.3 2431.29C13889.9 2344.93 13776.8 2301.75 13641.1 2301.75C13546.5 2301.75 13462.2 2322.31 13388.2 2363.43C13314.1 2400.45 13254.5 2453.91 13209.3 2523.82C13168.1 2593.73 13147.6 2680.09 13147.6 2782.9L12604.7 2708.88C12613 2453.91 12672.6 2235.95 12783.6 2055C12898.8 1869.94 13048.9 1728.06 13233.9 1629.36C13423.1 1526.55 13634.9 1475.15 13869.3 1475.15C14099.6 1475.15 14303.2 1524.5 14480 1623.19C14661 1717.78 14802.8 1855.55 14905.6 2036.5C15012.6 2213.33 15066 2427.18 15066 2678.04V4534.81H14122.2Z" fill="#EF4444"/>
<path d="M8676.86 4534.8V1536.83H9620.67V4534.8H8676.86ZM9151.85 1123.53C9003.8 1123.53 8880.43 1074.18 8781.73 975.482C8687.15 872.67 8639.85 749.297 8639.85 605.362C8639.85 457.314 8687.15 333.94 8781.73 235.241C8880.43 136.543 9003.8 87.1934 9151.85 87.1934C9299.9 87.1934 9421.22 136.543 9515.8 235.241C9610.39 333.94 9657.68 457.314 9657.68 605.362C9657.68 749.297 9610.39 872.67 9515.8 975.482C9421.22 1074.18 9299.9 1123.53 9151.85 1123.53Z" fill="#EF4444"/>
<path d="M6943.43 4608.83C6766.59 4608.83 6591.81 4586.21 6419.09 4540.97C6250.48 4495.74 6092.15 4431.99 5944.1 4349.75C5800.17 4263.38 5676.79 4164.69 5573.98 4053.65L6110.66 3510.81C6209.36 3617.73 6326.56 3702.04 6462.27 3763.72C6597.98 3821.3 6746.03 3850.08 6906.41 3850.08C7017.45 3850.08 7101.76 3833.63 7159.33 3800.73C7221.02 3767.83 7251.86 3722.6 7251.86 3665.02C7251.86 3591 7214.85 3535.48 7140.82 3498.47C7070.91 3457.34 6980.44 3422.39 6869.4 3393.6C6758.37 3360.7 6641.16 3325.75 6517.79 3288.73C6394.42 3251.72 6277.21 3200.32 6166.17 3134.52C6055.14 3068.72 5964.66 2978.24 5894.75 2863.1C5824.84 2743.83 5789.89 2593.73 5789.89 2412.78C5789.89 2219.5 5839.24 2052.94 5937.93 1913.12C6036.63 1769.19 6176.46 1656.09 6357.4 1573.84C6538.35 1491.6 6750.14 1450.47 6992.78 1450.47C7247.75 1450.47 7482.16 1495.71 7696 1586.18C7913.96 1672.54 8090.8 1802.08 8226.51 1974.81L7689.84 2517.65C7595.25 2406.61 7488.33 2328.48 7369.07 2283.24C7253.92 2238 7140.82 2215.39 7029.79 2215.39C6922.86 2215.39 6842.67 2231.84 6789.21 2264.74C6735.75 2293.52 6709.02 2336.7 6709.02 2394.28C6709.02 2455.96 6743.97 2505.31 6813.88 2542.33C6883.8 2579.34 6974.27 2612.24 7085.31 2641.02C7196.34 2669.81 7313.55 2704.77 7436.92 2745.89C7560.29 2787.02 7677.5 2842.53 7788.53 2912.45C7899.57 2982.36 7990.04 3076.94 8059.96 3196.2C8129.87 3311.35 8164.82 3463.51 8164.82 3652.69C8164.82 3944.67 8053.79 4177.02 7831.72 4349.75C7613.76 4522.47 7317.66 4608.83 6943.43 4608.83Z" fill="#EF4444"/>
<defs>
<clipPath id="clip0_4166_34">
<rect width="5135" height="5135" fill="white"/>
</clipPath>
</defs>
</svg>
